<?xml version="1.0" encoding="utf-8"?>
<!-- Generator: Adobe Illustrator 23.0.0, SVG Export Plug-In . SVG Version: 6.00 Build 0)  -->
<svg version="1.1" id="Layer_1" xmlns="http://www.w3.org/2000/svg" xmlns:xlink="http://www.w3.org/1999/xlink" x="0px" y="0px"
	 viewBox="0 0 340 90" style="enable-background:new 0 0 340 90;" xml:space="preserve">
<style type="text/css">
	.st0{fill:#3A3D46;}
	.st1{fill:#F4C3BC;}
	.st2{fill:#FFFFFF;}
</style>
<g>
	<path class="st0" d="M107.43,61.71V21.7h8.69l12.75,25.38l12.57-25.38h8.69v40.01h-7.32V34.1l-11.15,21.89h-5.77L114.75,34.1v27.61
		H107.43z"/>
	<path class="st0" d="M160.25,28.96c-1.33,0-2.43-0.4-3.29-1.2c-0.86-0.8-1.29-1.81-1.29-3.03c0-1.22,0.43-2.22,1.29-3
		c0.86-0.78,1.95-1.17,3.29-1.17c1.33,0,2.43,0.39,3.29,1.17c0.86,0.78,1.29,1.78,1.29,3c0,1.22-0.43,2.23-1.29,3.03
		C162.68,28.56,161.58,28.96,160.25,28.96z M156.59,61.71V33.36h7.32v28.35H156.59z"/>
	<path class="st0" d="M167.45,61.71l10.29-14.17l-10.29-14.17h7.83l7.2,10.06l7.14-10.06h7.89l-10.35,14.17l10.35,14.17h-7.89
		l-7.14-10.06l-7.2,10.06H167.45z"/>
	<path class="st0" d="M200.77,61.71V33.36h6.46l0.63,3.83c0.91-1.37,2.12-2.47,3.63-3.29c1.51-0.82,3.25-1.23,5.23-1.23
		c4.38,0,7.49,1.7,9.32,5.09c1.03-1.56,2.41-2.8,4.14-3.71c1.73-0.91,3.63-1.37,5.69-1.37c3.69,0,6.53,1.11,8.52,3.32
		c1.98,2.21,2.97,5.45,2.97,9.72v16h-7.32V46.39c0-2.44-0.47-4.3-1.4-5.6c-0.93-1.3-2.37-1.94-4.32-1.94
		c-1.98,0-3.57,0.72-4.77,2.17c-1.2,1.45-1.8,3.47-1.8,6.06v14.63h-7.32V46.39c0-2.44-0.48-4.3-1.43-5.6
		c-0.95-1.3-2.42-1.94-4.4-1.94c-1.94,0-3.51,0.72-4.71,2.17c-1.2,1.45-1.8,3.47-1.8,6.06v14.63H200.77z"/>
	<path class="st0" d="M262.67,62.39c-2.44,0-4.44-0.39-6-1.17c-1.56-0.78-2.72-1.82-3.49-3.12c-0.76-1.3-1.14-2.72-1.14-4.29
		c0-2.63,1.03-4.76,3.09-6.4c2.06-1.64,5.15-2.46,9.26-2.46h7.2v-0.69c0-1.94-0.55-3.37-1.66-4.29c-1.11-0.91-2.48-1.37-4.12-1.37
		c-1.49,0-2.78,0.35-3.89,1.06c-1.11,0.71-1.79,1.74-2.06,3.12h-7.14c0.19-2.06,0.89-3.85,2.09-5.37c1.2-1.52,2.75-2.69,4.66-3.51
		c1.91-0.82,4.04-1.23,6.4-1.23c4.04,0,7.22,1.01,9.54,3.03c2.32,2.02,3.49,4.88,3.49,8.57v17.43h-6.23l-0.69-4.57
		c-0.84,1.52-2.01,2.78-3.51,3.77C266.96,61.9,265.03,62.39,262.67,62.39z M264.33,56.68c2.09,0,3.72-0.69,4.89-2.06
		c1.16-1.37,1.89-3.07,2.2-5.09h-6.23c-1.94,0-3.34,0.35-4.17,1.06c-0.84,0.71-1.26,1.57-1.26,2.6c0,1.11,0.42,1.96,1.26,2.57
		C261.85,56.37,262.96,56.68,264.33,56.68z"/>
	<path class="st0" d="M284.45,61.71V33.36h6.52l0.69,5.32c1.03-1.83,2.43-3.29,4.2-4.37c1.77-1.09,3.86-1.63,6.26-1.63v7.72h-2.06
		c-1.6,0-3.03,0.25-4.29,0.74c-1.26,0.5-2.24,1.35-2.94,2.57c-0.71,1.22-1.06,2.91-1.06,5.09v12.92H284.45z"/>
	<path class="st0" d="M318.28,61.71c-2.97,0-5.35-0.72-7.14-2.17c-1.79-1.45-2.69-4.02-2.69-7.72V39.47h-4.86v-6.12h4.86l0.86-7.6
		h6.46v7.6h7.66v6.12h-7.66v12.4c0,1.37,0.29,2.31,0.89,2.83c0.59,0.51,1.61,0.77,3.06,0.77h3.54v6.23H318.28z"/>
	<path class="st0" d="M331.43,62.11c-1.33,0-2.43-0.42-3.29-1.26c-0.86-0.84-1.29-1.85-1.29-3.03c0-1.22,0.43-2.25,1.29-3.09
		s1.95-1.26,3.29-1.26s2.43,0.42,3.29,1.26c0.86,0.84,1.28,1.87,1.28,3.09c0,1.18-0.43,2.19-1.28,3.03
		C333.86,61.69,332.76,62.11,331.43,62.11z"/>
</g>
<g>
	<path class="st1" d="M12.27,20.53c3.68-1.14,7.71-1.28,12.08-0.41c9.67,1.93,15.78,7.04,18.32,15.33
		c2.96-2.99,6.55-5.12,10.78-6.37c4.23-1.25,8.61-1.43,13.15-0.52c8.15,1.63,13.93,5.32,17.33,11.06c3.4,5.75,4.16,13.33,2.28,22.75
		l-0.76,3.82c3.32-6.25,5.21-13.37,5.21-20.94c0-24.66-19.99-44.65-44.65-44.65c-16.4,0-30.72,8.84-38.48,22.01
		C9,21.76,10.57,21.06,12.27,20.53z"/>
	<path class="st1" d="M69.77,60.66c1.07-5.38,0.87-9.71-0.62-12.98c-1.49-3.27-4.38-5.33-8.67-6.19c-4.37-0.87-8.2,0.03-11.49,2.69
		c-3.29,2.67-5.5,6.86-6.64,12.57l-6.38,32c3.23,0.74,6.59,1.15,10.04,1.15c6.7,0,13.05-1.48,18.75-4.13L69.77,60.66z"/>
	<path class="st1" d="M26.51,52.02c1.07-5.38,0.84-9.71-0.69-12.99c-1.53-3.28-4.48-5.35-8.86-6.23c-4.29-0.86-8.08,0.05-11.36,2.72
		c-1.58,1.28-2.91,2.93-3.99,4.92c-0.17,1.58-0.26,3.18-0.26,4.8c0,15.19,7.6,28.61,19.19,36.67L26.51,52.02z"/>
</g>
<path class="st2" d="M64.76,85.77c8.85-4.1,16.13-11.01,20.69-19.59l0.76-3.82c1.88-9.42,1.12-17-2.28-22.75
	c-3.4-5.75-9.18-9.44-17.33-11.06c-4.54-0.91-8.93-0.73-13.15,0.52c-4.23,1.26-7.82,3.38-10.78,6.37
	c-2.54-8.29-8.65-13.4-18.32-15.33c-4.37-0.87-8.4-0.74-12.08,0.41c-1.7,0.53-3.27,1.23-4.75,2.08c-3.15,5.34-5.22,11.38-5.91,17.84
	c1.08-1.99,2.41-3.63,3.99-4.92c3.29-2.67,7.07-3.57,11.36-2.72c4.37,0.87,7.32,2.95,8.86,6.23c1.53,3.28,1.76,7.61,0.69,12.99
	l-5.97,29.9c4.59,3.19,9.8,5.54,15.42,6.83l6.38-32c1.14-5.72,3.35-9.91,6.64-12.57c3.29-2.67,7.11-3.56,11.49-2.69
	c4.29,0.86,7.18,2.92,8.67,6.19c1.49,3.27,1.7,7.6,0.62,12.98L64.76,85.77z"/>
</svg>
