<?xml version="1.0" encoding="utf-8"?>
<!-- Generator: Adobe Illustrator 23.0.0, SVG Export Plug-In . SVG Version: 6.00 Build 0)  -->
<svg version="1.1" id="Layer_1" xmlns="http://www.w3.org/2000/svg" xmlns:xlink="http://www.w3.org/1999/xlink" x="0px" y="0px"
	 viewBox="0 0 340 90" style="enable-background:new 0 0 340 90;" xml:space="preserve">
<style type="text/css">
	.st0{fill:#FFFFFF;}
	.st1{fill:#F4C3BC;}
</style>
<g>
	<path class="st0" d="M107.4,61.7v-40h8.7l12.7,25.4l12.6-25.4h8.7v40h-7.3V34.1L131.7,56h-5.8l-11.1-21.9v27.6H107.4z"/>
	<path class="st0" d="M160.3,29c-1.3,0-2.4-0.4-3.3-1.2c-0.9-0.8-1.3-1.8-1.3-3c0-1.2,0.4-2.2,1.3-3s1.9-1.2,3.3-1.2
		c1.3,0,2.4,0.4,3.3,1.2s1.3,1.8,1.3,3s-0.4,2.2-1.3,3S161.6,29,160.3,29z M156.6,61.7V33.4h7.3v28.3H156.6z"/>
	<path class="st0" d="M167.4,61.7l10.3-14.2l-10.3-14.2h7.8l7.2,10.1l7.1-10.1h7.9l-10.4,14.2l10.4,14.2h-7.9l-7.1-10.1l-7.2,10.1
		H167.4z"/>
	<path class="st0" d="M200.8,61.7V33.4h6.5l0.6,3.8c0.9-1.4,2.1-2.5,3.6-3.3c1.5-0.8,3.3-1.2,5.2-1.2c4.4,0,7.5,1.7,9.3,5.1
		c1-1.6,2.4-2.8,4.1-3.7s3.6-1.4,5.7-1.4c3.7,0,6.5,1.1,8.5,3.3c2,2.2,3,5.5,3,9.7v16H240V46.4c0-2.4-0.5-4.3-1.4-5.6
		s-2.4-1.9-4.3-1.9c-2,0-3.6,0.7-4.8,2.2s-1.8,3.5-1.8,6.1v14.6h-7.3V46.4c0-2.4-0.5-4.3-1.4-5.6s-2.4-1.9-4.4-1.9
		c-1.9,0-3.5,0.7-4.7,2.2c-1.2,1.5-1.8,3.5-1.8,6.1v14.6C208.1,61.7,200.8,61.7,200.8,61.7z"/>
	<path class="st0" d="M262.7,62.4c-2.4,0-4.4-0.4-6-1.2s-2.7-1.8-3.5-3.1c-0.8-1.3-1.1-2.7-1.1-4.3c0-2.6,1-4.8,3.1-6.4
		c2.1-1.6,5.1-2.5,9.3-2.5h7.2v-0.7c0-1.9-0.5-3.4-1.7-4.3c-1.1-0.9-2.5-1.4-4.1-1.4c-1.5,0-2.8,0.3-3.9,1.1
		c-1.1,0.7-1.8,1.7-2.1,3.1h-7.1c0.2-2.1,0.9-3.8,2.1-5.4s2.7-2.7,4.7-3.5s4-1.2,6.4-1.2c4,0,7.2,1,9.5,3s3.5,4.9,3.5,8.6v17.4h-6.2
		l-0.7-4.6c-0.8,1.5-2,2.8-3.5,3.8C267,61.9,265,62.4,262.7,62.4z M264.3,56.7c2.1,0,3.7-0.7,4.9-2.1c1.2-1.4,1.9-3.1,2.2-5.1h-6.2
		c-1.9,0-3.3,0.3-4.2,1.1c-0.8,0.7-1.3,1.6-1.3,2.6c0,1.1,0.4,2,1.3,2.6C261.9,56.4,263,56.7,264.3,56.7z"/>
	<path class="st0" d="M284.5,61.7V33.4h6.5l0.7,5.3c1-1.8,2.4-3.3,4.2-4.4c1.8-1.1,3.9-1.6,6.3-1.6v7.7h-2.1c-1.6,0-3,0.3-4.3,0.7
		c-1.3,0.5-2.2,1.3-2.9,2.6c-0.7,1.2-1.1,2.9-1.1,5.1v12.9L284.5,61.7L284.5,61.7z"/>
	<path class="st0" d="M318.3,61.7c-3,0-5.4-0.7-7.1-2.2c-1.8-1.5-2.7-4-2.7-7.7V39.5h-4.9v-6.1h4.9l0.9-7.6h6.5v7.6h7.7v6.1h-7.7
		v12.4c0,1.4,0.3,2.3,0.9,2.8c0.6,0.5,1.6,0.8,3.1,0.8h3.5v6.2L318.3,61.7L318.3,61.7z"/>
	<path class="st0" d="M331.4,62.1c-1.3,0-2.4-0.4-3.3-1.3c-0.9-0.8-1.3-1.8-1.3-3c0-1.2,0.4-2.3,1.3-3.1s2-1.3,3.3-1.3
		s2.4,0.4,3.3,1.3c0.9,0.8,1.3,1.9,1.3,3.1c0,1.2-0.4,2.2-1.3,3C333.9,61.7,332.8,62.1,331.4,62.1z"/>
</g>
<g>
	<path class="st1" d="M12.3,20.5c3.7-1.1,7.7-1.3,12.1-0.4c9.7,1.9,15.8,7,18.3,15.3c3-3,6.5-5.1,10.8-6.4s8.6-1.4,13.2-0.5
		c8.2,1.6,13.9,5.3,17.3,11.1c3.4,5.8,4.2,13.3,2.3,22.8l-0.8,3.8c3.3-6.3,5.2-13.4,5.2-20.9c0-24.7-20-44.7-44.7-44.7
		c-16.4,0-30.7,8.8-38.5,22C9,21.8,10.6,21.1,12.3,20.5z"/>
	<path class="st1" d="M69.8,60.7c1.1-5.4,0.9-9.7-0.6-13c-1.5-3.3-4.4-5.3-8.7-6.2c-4.4-0.9-8.2,0-11.5,2.7
		c-3.3,2.7-5.5,6.9-6.6,12.6l-6.4,32c3.2,0.7,6.6,1.2,10,1.2c6.7,0,13-1.5,18.7-4.1L69.8,60.7z"/>
	<path class="st1" d="M26.5,52c1.1-5.4,0.8-9.7-0.7-13c-1.5-3.3-4.5-5.3-8.9-6.2c-4.3-0.9-8.1,0-11.4,2.7c-1.6,1.3-2.9,2.9-4,4.9
		c-0.2,1.6-0.3,3.2-0.3,4.8c0,15.2,7.6,28.6,19.2,36.7L26.5,52z"/>
</g>
<path class="st0" d="M64.8,85.8c8.8-4.1,16.1-11,20.7-19.6l0.8-3.8c1.9-9.4,1.1-17-2.3-22.8s-9.2-9.4-17.3-11.1
	c-4.5-0.9-8.9-0.7-13.2,0.5c-4.2,1.3-7.8,3.4-10.8,6.4C40.1,27.1,34,22,24.4,20.1c-4.4-0.9-8.4-0.7-12.1,0.4
	C10.6,21,9,21.7,7.5,22.6C4.4,27.9,2.3,34,1.6,40.4c1.1-2,2.4-3.6,4-4.9c3.3-2.7,7.1-3.6,11.4-2.7c4.4,0.9,7.3,3,8.9,6.2
	c1.5,3.3,1.8,7.6,0.7,13l-6,29.9c4.6,3.2,9.8,5.5,15.4,6.8l6.4-32c1.1-5.7,3.3-9.9,6.6-12.6c3.3-2.7,7.1-3.6,11.5-2.7
	c4.3,0.9,7.2,2.9,8.7,6.2c1.5,3.3,1.7,7.6,0.6,13L64.8,85.8z"/>
</svg>
